<?xml version="1.0" encoding="UTF-8" standalone="no"?>
<svg
   xmlns:dc="http://purl.org/dc/elements/1.1/"
   xmlns:cc="http://creativecommons.org/ns#"
   xmlns:rdf="http://www.w3.org/1999/02/22-rdf-syntax-ns#"
   xmlns:svg="http://www.w3.org/2000/svg"
   xmlns="http://www.w3.org/2000/svg"
   xmlns:sodipodi="http://sodipodi.sourceforge.net/DTD/sodipodi-0.dtd"
   xmlns:inkscape="http://www.inkscape.org/namespaces/inkscape"
   role="img"
   viewBox="0 0 24 24"
   version="1.1"
   id="svg6"
   sodipodi:docname="github_orange.svg"
   inkscape:version="0.92.3 (2405546, 2018-03-11)">
  <metadata
     id="metadata12">
    <rdf:RDF>
      <cc:Work
         rdf:about="">
        <dc:format>image/svg+xml</dc:format>
        <dc:type
           rdf:resource="http://purl.org/dc/dcmitype/StillImage" />
        <dc:title>GitHub icon</dc:title>
      </cc:Work>
    </rdf:RDF>
  </metadata>
  <defs
     id="defs10" />
  <sodipodi:namedview
     pagecolor="#ffffff"
     bordercolor="#666666"
     borderopacity="1"
     objecttolerance="10"
     gridtolerance="10"
     guidetolerance="10"
     inkscape:pageopacity="0"
     inkscape:pageshadow="2"
     inkscape:window-width="1882"
     inkscape:window-height="1051"
     id="namedview8"
     showgrid="false"
     inkscape:zoom="27.812867"
     inkscape:cx="7.1076891"
     inkscape:cy="12.20339"
     inkscape:window-x="0"
     inkscape:window-y="0"
     inkscape:window-maximized="1"
     inkscape:current-layer="svg6" />
  <title
     id="title2">GitHub icon</title>
  <path
     d="m 12.037838,0.94513194 c -6.2729476,0 -11.35375149,5.08364216 -11.35375149,11.35375106 0,5.017412 3.25284989,9.27223 7.76312759,10.771872 0.5676876,0.106914 0.7758397,-0.244106 0.7758397,-0.545927 0,-0.269651 -0.00946,-0.983991 -0.014192,-1.930137 C 6.0506264,21.2797 5.3845397,19.071396 5.3845397,19.071396 4.867944,17.760983 4.1214348,17.410909 4.1214348,17.410909 c -1.0284606,-0.703932 0.079476,-0.68974 0.079476,-0.68974 1.1401059,0.07948 1.7390163,1.169436 1.7390163,1.169436 1.0123761,1.736178 2.6577239,1.234721 3.3067801,0.944254 0.1021837,-0.734209 0.3945427,-1.23472 0.7190708,-1.518564 -2.5214786,-0.283844 -5.1716334,-1.260267 -5.1716334,-5.610646 0,-1.239451 0.4399579,-2.2518265 1.1684903,-3.0465891 C 5.8349052,8.3723777 5.451716,7.2180796 6.0619802,5.6541003 c 0,0 0.9508767,-0.304659 3.1222816,1.1637596 0.9083002,-0.252621 1.8733692,-0.3775123 2.8384382,-0.3831892 0.965069,0.00568 1.930138,0.1305682 2.838438,0.3831892 2.157213,-1.4684186 3.108089,-1.1637596 3.108089,-1.1637596 0.610264,1.5639793 0.227075,2.7182774 0.113538,3.0049596 0.723802,0.7947626 1.163759,1.8071381 1.163759,3.0465891 0,4.361733 -2.653939,5.322071 -5.180149,5.601184 0.397382,0.340613 0.766378,1.036976 0.766378,2.100444 0,1.519511 -0.01419,2.740039 -0.01419,3.109036 0,0.298036 0.198691,0.652841 0.780571,0.539303 4.542446,-1.489233 7.792458,-5.74689 7.792458,-10.756733 0,-6.2701089 -5.083642,-11.35375106 -11.353752,-11.35375106"
     id="path4"
     style="fill:none;fill-opacity:1;stroke:#ff9500;stroke-width:1.53;stroke-miterlimit:4;stroke-dasharray:none;stroke-opacity:1"
     inkscape:connector-curvature="0" />
  <path
     style="opacity:0;fill:#808080;stroke-width:0.10169491"
     d="M 7.4949153,23.365661 C 4.8458847,22.317844 2.4351424,20.035314 1.1979918,17.403631 -0.36166276,14.085913 -0.32729798,10.284143 1.2917867,7.0271186 2.5150896,4.5662664 4.293923,2.7976786 6.7770699,1.573429 8.456696,0.74533404 10.103654,0.36610169 12.020339,0.36610169 c 5.112259,0 9.653984,3.26251051 11.300059,8.11730411 0.419251,1.2365005 0.598246,2.3836172 0.598246,3.8339352 0,3.26852 -1.197946,6.137575 -3.530401,8.455237 -1.269889,1.261834 -3.163968,2.429578 -4.535978,2.796535 -0.414058,0.110743 -0.489667,0.104273 -0.668053,-0.05716 -0.187156,-0.169375 -0.203392,-0.342337 -0.233359,-2.485978 -0.03213,-2.298401 -0.03288,-2.30513 -0.31187,-2.799797 -0.347842,-0.616751 -0.347669,-0.673633 0.002,-0.673633 0.420958,0 1.708821,-0.379338 2.347147,-0.691349 1.160032,-0.567019 1.991624,-1.605577 2.418581,-3.020515 0.138301,-0.458332 0.184255,-0.951803 0.184667,-1.983051 6.1e-4,-1.533124 -0.133433,-2.023202 -0.811557,-2.9671013 C 18.475637,8.4670629 18.448154,8.3761578 18.533935,8.0770566 18.681758,7.5616292 18.648944,6.3634015 18.470556,5.7627032 L 18.310603,5.2240841 17.726832,5.2663102 C 17.142219,5.3085973 15.91638,5.8074025 15.275399,6.2638206 14.994489,6.4638464 14.969828,6.4646737 14.291937,6.2968112 13.349425,6.063422 10.734322,6.0557305 9.7322034,6.2834001 L 9.020339,6.4451274 8.359322,6.0635347 C 7.4747888,5.5529103 6.618715,5.2474576 6.0721516,5.2474576 c -0.4304565,0 -0.4538323,0.015776 -0.5650674,0.381356 C 5.3355576,6.1925452 5.2697135,7.5823782 5.3933238,8.0300583 5.4933129,8.3921889 5.47619,8.4567646 5.1572249,8.9204582 4.5184089,9.8491334 4.3549217,10.435862 4.352975,11.80678 c -0.00273,1.919922 0.4329025,3.200542 1.427504,4.196437 0.7893412,0.790368 1.7645083,1.216935 3.6834786,1.611261 0.231411,0.04755 0.2336399,0.05665 0.060724,0.247714 -0.098728,0.109093 -0.2596692,0.438711 -0.3576483,0.732486 C 8.9652131,19.199804 8.7437862,19.359252 7.980066,19.449407 6.9564102,19.570245 6.4671465,19.274758 5.2634321,17.808718 4.7986482,17.242644 4.1575349,16.915778 3.6023353,16.961822 c -0.5686799,0.04716 -0.5089,0.347791 0.1807155,0.908807 0.4379218,0.356257 0.6530897,0.64151 0.9913334,1.314229 0.7908236,1.572838 1.6353569,2.088445 3.2910816,2.009284 l 0.9040257,-0.04322 v 1.091853 c 0,1.537314 -0.1459217,1.648433 -1.4745762,1.122888 z"
     id="path3717"
     inkscape:connector-curvature="0" />
  <path
     style="opacity:0;fill:#404040;stroke-width:0.10169491;fill-opacity:0"
     d="M 7.4949153,23.365661 C 4.8458847,22.317844 2.4351424,20.035314 1.1979918,17.403631 -0.36166276,14.085913 -0.32729798,10.284143 1.2917867,7.0271186 2.5150896,4.5662664 4.293923,2.7976786 6.7770699,1.573429 8.456696,0.74533404 10.103654,0.36610169 12.020339,0.36610169 c 5.112259,0 9.653984,3.26251051 11.300059,8.11730411 0.419251,1.2365005 0.598246,2.3836172 0.598246,3.8339352 0,3.26852 -1.197946,6.137575 -3.530401,8.455237 -1.269889,1.261834 -3.163968,2.429578 -4.535978,2.796535 -0.414058,0.110743 -0.489667,0.104273 -0.668053,-0.05716 -0.187156,-0.169375 -0.203392,-0.342337 -0.233359,-2.485978 -0.03213,-2.298401 -0.03288,-2.30513 -0.31187,-2.799797 -0.347842,-0.616751 -0.347669,-0.673633 0.002,-0.673633 0.420958,0 1.708821,-0.379338 2.347147,-0.691349 1.160032,-0.567019 1.991624,-1.605577 2.418581,-3.020515 0.138301,-0.458332 0.184255,-0.951803 0.184667,-1.983051 6.1e-4,-1.533124 -0.133433,-2.023202 -0.811557,-2.9671013 C 18.475637,8.4670629 18.448154,8.3761578 18.533935,8.0770566 18.681758,7.5616292 18.648944,6.3634015 18.470556,5.7627032 L 18.310603,5.2240841 17.726832,5.2663102 C 17.142219,5.3085973 15.91638,5.8074025 15.275399,6.2638206 14.994489,6.4638464 14.969828,6.4646737 14.291937,6.2968112 13.349425,6.063422 10.734322,6.0557305 9.7322034,6.2834001 L 9.020339,6.4451274 8.359322,6.0635347 C 7.4747888,5.5529103 6.618715,5.2474576 6.0721516,5.2474576 c -0.4304565,0 -0.4538323,0.015776 -0.5650674,0.381356 C 5.3355576,6.1925452 5.2697135,7.5823782 5.3933238,8.0300583 5.4933129,8.3921889 5.47619,8.4567646 5.1572249,8.9204582 4.5184089,9.8491334 4.3549217,10.435862 4.352975,11.80678 c -0.00273,1.919922 0.4329025,3.200542 1.427504,4.196437 0.7893412,0.790368 1.7645083,1.216935 3.6834786,1.611261 0.231411,0.04755 0.2336399,0.05665 0.060724,0.247714 -0.098728,0.109093 -0.2596692,0.438711 -0.3576483,0.732486 C 8.9652131,19.199804 8.7437862,19.359252 7.980066,19.449407 6.9564102,19.570245 6.4671465,19.274758 5.2634321,17.808718 4.7986482,17.242644 4.1575349,16.915778 3.6023353,16.961822 c -0.5686799,0.04716 -0.5089,0.347791 0.1807155,0.908807 0.4379218,0.356257 0.6530897,0.64151 0.9913334,1.314229 0.7908236,1.572838 1.6353569,2.088445 3.2910816,2.009284 l 0.9040257,-0.04322 v 1.091853 c 0,1.537314 -0.1459217,1.648433 -1.4745762,1.122888 z"
     id="path3719"
     inkscape:connector-curvature="0" />
</svg>
