<?xml version="1.0" encoding="UTF-8" standalone="no"?>
<svg
   xmlns:dc="http://purl.org/dc/elements/1.1/"
   xmlns:cc="http://creativecommons.org/ns#"
   xmlns:rdf="http://www.w3.org/1999/02/22-rdf-syntax-ns#"
   xmlns:svg="http://www.w3.org/2000/svg"
   xmlns="http://www.w3.org/2000/svg"
   xmlns:sodipodi="http://sodipodi.sourceforge.net/DTD/sodipodi-0.dtd"
   xmlns:inkscape="http://www.inkscape.org/namespaces/inkscape"
   width="24px"
   height="24px"
   viewBox="0 0 24 24"
   version="1.1"
   id="svg11"
   sodipodi:docname="mail_orange.svg"
   inkscape:version="0.92.3 (2405546, 2018-03-11)">
  <metadata
     id="metadata15">
    <rdf:RDF>
      <cc:Work
         rdf:about="">
        <dc:format>image/svg+xml</dc:format>
        <dc:type
           rdf:resource="http://purl.org/dc/dcmitype/StillImage" />
        <dc:title>/svg/ic-mail</dc:title>
      </cc:Work>
    </rdf:RDF>
  </metadata>
  <sodipodi:namedview
     pagecolor="#ffffff"
     bordercolor="#666666"
     borderopacity="1"
     objecttolerance="10"
     gridtolerance="10"
     guidetolerance="10"
     inkscape:pageopacity="0"
     inkscape:pageshadow="2"
     inkscape:window-width="1882"
     inkscape:window-height="1051"
     id="namedview13"
     showgrid="false"
     inkscape:zoom="9.8333333"
     inkscape:cx="-2.8474577"
     inkscape:cy="12"
     inkscape:window-x="0"
     inkscape:window-y="0"
     inkscape:window-maximized="1"
     inkscape:current-layer="svg11" />
  <!-- Generator: Sketch 43.1 (39012) - http://www.bohemiancoding.com/sketch -->
  <title
     id="title2">/svg/ic-mail</title>
  <desc
     id="desc4">Created with Sketch.</desc>
  <defs
     id="defs6" />
  <g
     id="Page-1"
     stroke="none"
     stroke-width="1"
     fill="none"
     fill-rule="evenodd"
     style="fill:#ff9500;fill-opacity:1">
    <g
       id="ic-mail"
       fill-rule="nonzero"
       fill="#4A4A4A"
       style="fill:#ff9500;fill-opacity:1">
      <path
         d="M21,7.41988177 L21,7.00247329 C21,6.45576096 20.5552407,6 20.0066023,6 L3.99339768,6 C3.44494629,6 3,6.44882258 3,7.00247329 L3,7.39176926 L11.4736665,10.8032231 C11.751932,10.9152513 12.3170143,10.9156063 12.5961616,10.8032231 L21,7.41988177 Z M21,9.57588042 L13.3430911,12.6585118 C12.5842636,12.9640118 11.4838475,12.9633206 10.7267369,12.6585118 L3,9.54776791 L3,16.9975267 C3,17.544239 3.44475929,18 3.99339768,18 L20.0066023,18 C20.5550537,18 21,17.5511774 21,16.9975267 L21,9.57588042 Z M1,7.00247329 C1,5.34831175 2.33627892,4 3.99339768,4 L20.0066023,4 C21.6637011,4 23,5.35495419 23,7.00247329 L23,16.9975267 C23,18.6516882 21.6637211,20 20.0066023,20 L3.99339768,20 C2.3362989,20 1,18.6450458 1,16.9975267 L1,7.00247329 Z"
         id="Rectangle-23"
         style="fill:#ff9500;fill-opacity:1" />
    </g>
  </g>
</svg>
