<?xml version="1.0" encoding="UTF-8" standalone="no"?>
<svg
   xmlns:dc="http://purl.org/dc/elements/1.1/"
   xmlns:cc="http://creativecommons.org/ns#"
   xmlns:rdf="http://www.w3.org/1999/02/22-rdf-syntax-ns#"
   xmlns:svg="http://www.w3.org/2000/svg"
   xmlns="http://www.w3.org/2000/svg"
   xmlns:sodipodi="http://sodipodi.sourceforge.net/DTD/sodipodi-0.dtd"
   xmlns:inkscape="http://www.inkscape.org/namespaces/inkscape"
   width="24px"
   height="24px"
   viewBox="0 0 24 24"
   version="1.1"
   id="svg11"
   sodipodi:docname="phone_orange.svg"
   inkscape:version="0.92.3 (2405546, 2018-03-11)">
  <metadata
     id="metadata15">
    <rdf:RDF>
      <cc:Work
         rdf:about="">
        <dc:format>image/svg+xml</dc:format>
        <dc:type
           rdf:resource="http://purl.org/dc/dcmitype/StillImage" />
        <dc:title>/svg/ic-phone</dc:title>
      </cc:Work>
    </rdf:RDF>
  </metadata>
  <sodipodi:namedview
     pagecolor="#ffffff"
     bordercolor="#666666"
     borderopacity="1"
     objecttolerance="10"
     gridtolerance="10"
     guidetolerance="10"
     inkscape:pageopacity="0"
     inkscape:pageshadow="2"
     inkscape:window-width="1882"
     inkscape:window-height="1051"
     id="namedview13"
     showgrid="false"
     inkscape:zoom="9.8333333"
     inkscape:cx="-2.8474577"
     inkscape:cy="12"
     inkscape:window-x="0"
     inkscape:window-y="0"
     inkscape:window-maximized="1"
     inkscape:current-layer="Page-1" />
  <!-- Generator: Sketch 43.1 (39012) - http://www.bohemiancoding.com/sketch -->
  <title
     id="title2">/svg/ic-phone</title>
  <desc
     id="desc4">Created with Sketch.</desc>
  <defs
     id="defs6" />
  <g
     id="Page-1"
     stroke="none"
     stroke-width="1"
     fill="none"
     fill-rule="evenodd">
    <g
       id="ic-phone"
       stroke="#4A4A4A"
       stroke-width="2"
       style="stroke:#ff9500;stroke-opacity:1;fill:none;fill-opacity:1">
      <path
         d="M12.131728,15.6331816 L12.131728,8.62927263 C12.131728,8.63313206 12.133149,8.63172798 12.1410969,8.63172798 L14.1223591,8.63172798 C15.2390233,8.63172798 16.131728,7.73376514 16.131728,6.62235909 L16.131728,4.64109688 C16.131728,3.52857832 15.2462109,2.63172798 14.14095,2.63172798 L11.1296411,2.63172798 C9.47644929,2.63172798 8.13172798,3.97617557 8.13172798,5.63183416 L8.13172798,18.6316218 C8.13172798,20.2922564 9.47223989,21.631728 11.1296411,21.631728 L14.14095,21.631728 C15.238623,21.631728 16.131728,20.7265277 16.131728,19.6223591 L16.131728,17.6410969 C16.131728,16.5244327 15.2337651,15.631728 14.1223591,15.631728 L12.1410969,15.631728 C12.1346388,15.631728 12.1324063,15.6325005 12.131728,15.6331819 L12.131728,15.6331816 Z"
         id="Combined-Shape"
         transform="translate(12.131728, 12.131728) rotate(-45.000000) translate(-12.131728, -12.131728) "
         style="stroke:#ff9500;stroke-opacity:1;fill:none;fill-opacity:1" />
    </g>
  </g>
</svg>
